<svg xmlns="http://www.w3.org/2000/svg" viewBox="0 0 64 64" role="img" aria-labelledby="title">
  <title id="title">Shubhaang Kataruka portfolio favicon placeholder</title>
  <rect width="64" height="64" rx="14" fill="#070a12" />
  <path d="M11 43V21h7.5c4.4 0 7.2 2.1 7.2 5.5 0 2-1 3.6-2.8 4.6 2.7.8 4.2 2.7 4.2 5.4 0 4-3.1 6.5-8.2 6.5H11Zm5.1-13.7h2.3c1.5 0 2.4-.8 2.4-2.1 0-1.3-.9-2-2.5-2h-2.2v4.1Zm0 9.4h2.8c1.9 0 3-.9 3-2.5s-1.1-2.5-3.1-2.5h-2.7v5Z" fill="#22d3ee" />
  <path d="M34.5 43V21h5.1v9.1L47.5 21h6.1l-8.4 9.5L54.1 43H48l-6.2-8.9-2.2 2.4V43h-5.1Z" fill="#a78bfa" />
  <path d="M12 50h40" stroke="#34d399" stroke-width="3" stroke-linecap="round" />
</svg>
